<mxfile host="app.diagrams.net" modified="2023-11-30T07:44:06.809Z" agent="Mozilla/5.0 (Macintosh; Intel Mac OS X 10_15_7) AppleWebKit/537.36 (KHTML, like Gecko) Chrome/119.0.0.0 Safari/537.36" etag="FaxNlSViC7O0qH-F2inQ" version="22.1.5" type="github">
  <diagram name="第 1 页" id="A01JNlwpQaubJH5rVi9P">
    <mxGraphModel dx="-1084" dy="1532" grid="1" gridSize="10" guides="1" tooltips="1" connect="1" arrows="1" fold="1" page="1" pageScale="1" pageWidth="827" pageHeight="1169" math="0" shadow="0">
      <root>
        <mxCell id="0" />
        <mxCell id="1" parent="0" />
        <mxCell id="37OuJCox3zHIhqwTDh0u-1" value="" style="rounded=1;whiteSpace=wrap;html=1;container=0;" vertex="1" parent="1">
          <mxGeometry x="1730" y="-100" width="610" height="660" as="geometry" />
        </mxCell>
        <mxCell id="37OuJCox3zHIhqwTDh0u-58" value="" style="rounded=0;whiteSpace=wrap;html=1;dashed=1;strokeWidth=2;container=0;" vertex="1" parent="1">
          <mxGeometry x="1824" y="44" width="303" height="33" as="geometry" />
        </mxCell>
        <mxCell id="37OuJCox3zHIhqwTDh0u-57" value="" style="rounded=0;whiteSpace=wrap;html=1;dashed=1;strokeWidth=2;container=0;" vertex="1" parent="1">
          <mxGeometry x="1823" y="187" width="303" height="33" as="geometry" />
        </mxCell>
        <mxCell id="37OuJCox3zHIhqwTDh0u-56" value="" style="rounded=0;whiteSpace=wrap;html=1;dashed=1;strokeWidth=2;container=0;" vertex="1" parent="1">
          <mxGeometry x="1824" y="139" width="303" height="39.5" as="geometry" />
        </mxCell>
        <mxCell id="37OuJCox3zHIhqwTDh0u-51" value="" style="rounded=0;whiteSpace=wrap;html=1;dashed=1;strokeWidth=2;container=0;" vertex="1" parent="1">
          <mxGeometry x="1824" y="89" width="303" height="43" as="geometry" />
        </mxCell>
        <mxCell id="37OuJCox3zHIhqwTDh0u-3" value="&lt;font face=&quot;Times New Roman&quot; style=&quot;font-size: 30px;&quot;&gt;FKW&lt;sub&gt;1&lt;/sub&gt;&lt;/font&gt;" style="text;html=1;align=center;verticalAlign=middle;resizable=0;points=[];autosize=1;strokeColor=none;fillColor=none;container=0;" vertex="1" parent="1">
          <mxGeometry x="1823" y="502.0455102040817" width="100" height="60" as="geometry" />
        </mxCell>
        <mxCell id="37OuJCox3zHIhqwTDh0u-4" value="&lt;font style=&quot;font-size: 30px;&quot; face=&quot;Times New Roman&quot;&gt;Self-Attention&lt;/font&gt;" style="rounded=1;whiteSpace=wrap;html=1;fillColor=#e1d5e7;strokeColor=#000000;container=0;" vertex="1" parent="1">
          <mxGeometry x="1757" y="286" width="473" height="69.95" as="geometry" />
        </mxCell>
        <mxCell id="37OuJCox3zHIhqwTDh0u-5" value="&lt;font style=&quot;font-size: 30px;&quot; face=&quot;Times New Roman&quot;&gt;&lt;b&gt;Phrase&lt;/b&gt;&lt;/font&gt;&lt;font face=&quot;Times New Roman&quot; style=&quot;font-size: 30px;&quot;&gt;&lt;b&gt;&lt;font style=&quot;font-size: 30px;&quot;&gt;-level&amp;nbsp;&lt;/font&gt;Representation&lt;/b&gt;&lt;/font&gt;" style="text;html=1;align=center;verticalAlign=middle;resizable=0;points=[];autosize=1;strokeColor=none;fillColor=none;container=0;" vertex="1" parent="1">
          <mxGeometry x="1857" y="-100" width="380" height="50" as="geometry" />
        </mxCell>
        <mxCell id="37OuJCox3zHIhqwTDh0u-6" value="&lt;font face=&quot;Times New Roman&quot; style=&quot;font-size: 30px;&quot;&gt;FKW&lt;sub&gt;2&lt;/sub&gt;&lt;/font&gt;" style="text;html=1;align=center;verticalAlign=middle;resizable=0;points=[];autosize=1;strokeColor=none;fillColor=none;container=0;" vertex="1" parent="1">
          <mxGeometry x="2033" y="502.0455102040817" width="100" height="60" as="geometry" />
        </mxCell>
        <mxCell id="37OuJCox3zHIhqwTDh0u-8" value="&lt;font face=&quot;Times New Roman&quot; style=&quot;font-size: 30px;&quot;&gt;Row Max Pooling&lt;/font&gt;" style="text;html=1;align=center;verticalAlign=middle;resizable=0;points=[];autosize=1;strokeColor=none;fillColor=none;container=0;" vertex="1" parent="1">
          <mxGeometry x="1869" y="-28" width="240" height="50" as="geometry" />
        </mxCell>
        <mxCell id="37OuJCox3zHIhqwTDh0u-9" value="" style="endArrow=classic;html=1;rounded=0;" edge="1" parent="1">
          <mxGeometry width="50" height="50" relative="1" as="geometry">
            <mxPoint x="1872" y="518.49" as="sourcePoint" />
            <mxPoint x="1872" y="484.00000000000006" as="targetPoint" />
          </mxGeometry>
        </mxCell>
        <mxCell id="37OuJCox3zHIhqwTDh0u-10" value="" style="endArrow=classic;html=1;rounded=0;" edge="1" parent="1">
          <mxGeometry width="50" height="50" relative="1" as="geometry">
            <mxPoint x="2081" y="518.49" as="sourcePoint" />
            <mxPoint x="2081" y="484.00000000000006" as="targetPoint" />
          </mxGeometry>
        </mxCell>
        <mxCell id="37OuJCox3zHIhqwTDh0u-11" value="" style="endArrow=classic;html=1;rounded=0;" edge="1" parent="1">
          <mxGeometry width="50" height="50" relative="1" as="geometry">
            <mxPoint x="2081" y="276.44000000000005" as="sourcePoint" />
            <mxPoint x="2081" y="241.95000000000005" as="targetPoint" />
          </mxGeometry>
        </mxCell>
        <mxCell id="37OuJCox3zHIhqwTDh0u-12" value="" style="endArrow=classic;html=1;rounded=0;" edge="1" parent="1">
          <mxGeometry width="50" height="50" relative="1" as="geometry">
            <mxPoint x="1873" y="278.44000000000005" as="sourcePoint" />
            <mxPoint x="1873" y="243.95000000000005" as="targetPoint" />
          </mxGeometry>
        </mxCell>
        <mxCell id="37OuJCox3zHIhqwTDh0u-13" value="" style="endArrow=classic;html=1;rounded=0;" edge="1" parent="1">
          <mxGeometry width="50" height="50" relative="1" as="geometry">
            <mxPoint x="2145" y="63.99999999999977" as="sourcePoint" />
            <mxPoint x="2215" y="63.99999999999977" as="targetPoint" />
          </mxGeometry>
        </mxCell>
        <mxCell id="37OuJCox3zHIhqwTDh0u-14" value="" style="endArrow=classic;html=1;rounded=0;" edge="1" parent="1">
          <mxGeometry width="50" height="50" relative="1" as="geometry">
            <mxPoint x="2145" y="109.58999999999992" as="sourcePoint" />
            <mxPoint x="2215" y="109.58999999999992" as="targetPoint" />
          </mxGeometry>
        </mxCell>
        <mxCell id="37OuJCox3zHIhqwTDh0u-15" value="" style="endArrow=classic;html=1;rounded=0;" edge="1" parent="1">
          <mxGeometry width="50" height="50" relative="1" as="geometry">
            <mxPoint x="2145" y="156.58999999999992" as="sourcePoint" />
            <mxPoint x="2215" y="156.58999999999992" as="targetPoint" />
          </mxGeometry>
        </mxCell>
        <mxCell id="37OuJCox3zHIhqwTDh0u-16" value="" style="endArrow=classic;html=1;rounded=0;" edge="1" parent="1">
          <mxGeometry width="50" height="50" relative="1" as="geometry">
            <mxPoint x="2145" y="203.58999999999992" as="sourcePoint" />
            <mxPoint x="2215" y="203.58999999999992" as="targetPoint" />
          </mxGeometry>
        </mxCell>
        <mxCell id="37OuJCox3zHIhqwTDh0u-36" value="" style="group" vertex="1" connectable="0" parent="1">
          <mxGeometry x="1847" y="35" width="50" height="197" as="geometry" />
        </mxCell>
        <mxCell id="37OuJCox3zHIhqwTDh0u-28" value="" style="rounded=1;whiteSpace=wrap;html=1;direction=west;rotation=90;container=0;" vertex="1" parent="37OuJCox3zHIhqwTDh0u-36">
          <mxGeometry x="-73.5" y="73.5" width="197" height="50" as="geometry" />
        </mxCell>
        <mxCell id="37OuJCox3zHIhqwTDh0u-29" value="" style="ellipse;whiteSpace=wrap;html=1;aspect=fixed;fillColor=#e1d5e7;direction=west;container=0;" vertex="1" parent="37OuJCox3zHIhqwTDh0u-36">
          <mxGeometry x="10" y="12" width="30" height="30" as="geometry" />
        </mxCell>
        <mxCell id="37OuJCox3zHIhqwTDh0u-30" value="" style="ellipse;whiteSpace=wrap;html=1;aspect=fixed;fillColor=#e1d5e7;direction=west;container=0;" vertex="1" parent="37OuJCox3zHIhqwTDh0u-36">
          <mxGeometry x="10" y="60" width="30" height="30" as="geometry" />
        </mxCell>
        <mxCell id="37OuJCox3zHIhqwTDh0u-31" value="" style="ellipse;whiteSpace=wrap;html=1;aspect=fixed;fillColor=#e1d5e7;direction=west;container=0;" vertex="1" parent="37OuJCox3zHIhqwTDh0u-36">
          <mxGeometry x="10" y="108" width="30" height="30" as="geometry" />
        </mxCell>
        <mxCell id="37OuJCox3zHIhqwTDh0u-32" value="" style="ellipse;whiteSpace=wrap;html=1;aspect=fixed;fillColor=#e1d5e7;direction=west;container=0;" vertex="1" parent="37OuJCox3zHIhqwTDh0u-36">
          <mxGeometry x="10" y="154" width="30" height="30" as="geometry" />
        </mxCell>
        <mxCell id="37OuJCox3zHIhqwTDh0u-43" value="" style="group" vertex="1" connectable="0" parent="1">
          <mxGeometry x="2250" y="35" width="50" height="197" as="geometry" />
        </mxCell>
        <mxCell id="37OuJCox3zHIhqwTDh0u-44" value="" style="rounded=1;whiteSpace=wrap;html=1;direction=west;rotation=90;container=0;" vertex="1" parent="37OuJCox3zHIhqwTDh0u-43">
          <mxGeometry x="-73.5" y="73.5" width="197" height="50" as="geometry" />
        </mxCell>
        <mxCell id="37OuJCox3zHIhqwTDh0u-45" value="" style="ellipse;whiteSpace=wrap;html=1;aspect=fixed;fillColor=#e1d5e7;direction=west;container=0;" vertex="1" parent="37OuJCox3zHIhqwTDh0u-43">
          <mxGeometry x="10" y="12" width="30" height="30" as="geometry" />
        </mxCell>
        <mxCell id="37OuJCox3zHIhqwTDh0u-46" value="" style="ellipse;whiteSpace=wrap;html=1;aspect=fixed;fillColor=#e1d5e7;direction=west;container=0;" vertex="1" parent="37OuJCox3zHIhqwTDh0u-43">
          <mxGeometry x="10" y="59" width="30" height="30" as="geometry" />
        </mxCell>
        <mxCell id="37OuJCox3zHIhqwTDh0u-47" value="" style="ellipse;whiteSpace=wrap;html=1;aspect=fixed;fillColor=#e1d5e7;direction=west;container=0;" vertex="1" parent="37OuJCox3zHIhqwTDh0u-43">
          <mxGeometry x="10" y="107" width="30" height="30" as="geometry" />
        </mxCell>
        <mxCell id="37OuJCox3zHIhqwTDh0u-48" value="" style="ellipse;whiteSpace=wrap;html=1;aspect=fixed;fillColor=#e1d5e7;direction=west;container=0;" vertex="1" parent="37OuJCox3zHIhqwTDh0u-43">
          <mxGeometry x="10" y="154" width="30" height="30" as="geometry" />
        </mxCell>
        <mxCell id="37OuJCox3zHIhqwTDh0u-38" value="" style="rounded=1;whiteSpace=wrap;html=1;direction=west;rotation=90;container=0;" vertex="1" parent="1">
          <mxGeometry x="1983.5" y="108.5" width="197" height="50" as="geometry" />
        </mxCell>
        <mxCell id="37OuJCox3zHIhqwTDh0u-39" value="" style="ellipse;whiteSpace=wrap;html=1;aspect=fixed;fillColor=#e1d5e7;direction=west;container=0;" vertex="1" parent="1">
          <mxGeometry x="2067" y="47" width="30" height="30" as="geometry" />
        </mxCell>
        <mxCell id="37OuJCox3zHIhqwTDh0u-40" value="" style="ellipse;whiteSpace=wrap;html=1;aspect=fixed;fillColor=#e1d5e7;direction=west;container=0;" vertex="1" parent="1">
          <mxGeometry x="2067" y="95" width="30" height="30" as="geometry" />
        </mxCell>
        <mxCell id="37OuJCox3zHIhqwTDh0u-41" value="" style="ellipse;whiteSpace=wrap;html=1;aspect=fixed;fillColor=#e1d5e7;direction=west;container=0;" vertex="1" parent="1">
          <mxGeometry x="2067" y="143" width="30" height="30" as="geometry" />
        </mxCell>
        <mxCell id="37OuJCox3zHIhqwTDh0u-42" value="" style="ellipse;whiteSpace=wrap;html=1;aspect=fixed;fillColor=#e1d5e7;direction=west;container=0;" vertex="1" parent="1">
          <mxGeometry x="2067" y="189" width="30" height="30" as="geometry" />
        </mxCell>
        <mxCell id="37OuJCox3zHIhqwTDh0u-33" value="" style="endArrow=none;dashed=1;html=1;rounded=0;strokeWidth=2;" edge="1" parent="1">
          <mxGeometry width="50" height="50" relative="1" as="geometry">
            <mxPoint x="1824" y="44" as="sourcePoint" />
            <mxPoint x="2127" y="44" as="targetPoint" />
          </mxGeometry>
        </mxCell>
        <mxCell id="37OuJCox3zHIhqwTDh0u-50" value="" style="endArrow=none;dashed=1;html=1;rounded=0;strokeWidth=2;" edge="1" parent="1">
          <mxGeometry width="50" height="50" relative="1" as="geometry">
            <mxPoint x="1825" y="89" as="sourcePoint" />
            <mxPoint x="2128" y="89" as="targetPoint" />
          </mxGeometry>
        </mxCell>
        <mxCell id="37OuJCox3zHIhqwTDh0u-52" value="" style="endArrow=none;dashed=1;html=1;rounded=0;strokeWidth=2;" edge="1" parent="1">
          <mxGeometry width="50" height="50" relative="1" as="geometry">
            <mxPoint x="1831" y="132.07999999999998" as="sourcePoint" />
            <mxPoint x="2130" y="132" as="targetPoint" />
          </mxGeometry>
        </mxCell>
        <mxCell id="37OuJCox3zHIhqwTDh0u-53" value="" style="endArrow=none;dashed=1;html=1;rounded=0;strokeWidth=2;" edge="1" parent="1">
          <mxGeometry width="50" height="50" relative="1" as="geometry">
            <mxPoint x="1822" y="76.99999999999999" as="sourcePoint" />
            <mxPoint x="2125" y="76.99999999999999" as="targetPoint" />
          </mxGeometry>
        </mxCell>
        <mxCell id="37OuJCox3zHIhqwTDh0u-59" value="" style="endArrow=none;dashed=1;html=1;rounded=0;strokeWidth=2;" edge="1" parent="1">
          <mxGeometry width="50" height="50" relative="1" as="geometry">
            <mxPoint x="1824" y="139" as="sourcePoint" />
            <mxPoint x="2127" y="139" as="targetPoint" />
          </mxGeometry>
        </mxCell>
        <mxCell id="37OuJCox3zHIhqwTDh0u-60" value="" style="endArrow=none;dashed=1;html=1;rounded=0;strokeWidth=2;" edge="1" parent="1">
          <mxGeometry width="50" height="50" relative="1" as="geometry">
            <mxPoint x="1828" y="179" as="sourcePoint" />
            <mxPoint x="2131" y="179" as="targetPoint" />
          </mxGeometry>
        </mxCell>
        <mxCell id="37OuJCox3zHIhqwTDh0u-61" value="" style="endArrow=none;dashed=1;html=1;rounded=0;strokeWidth=2;" edge="1" parent="1">
          <mxGeometry width="50" height="50" relative="1" as="geometry">
            <mxPoint x="1823" y="187" as="sourcePoint" />
            <mxPoint x="2126" y="187" as="targetPoint" />
          </mxGeometry>
        </mxCell>
        <mxCell id="37OuJCox3zHIhqwTDh0u-62" value="" style="endArrow=none;dashed=1;html=1;rounded=0;strokeWidth=2;" edge="1" parent="1">
          <mxGeometry width="50" height="50" relative="1" as="geometry">
            <mxPoint x="1822" y="220" as="sourcePoint" />
            <mxPoint x="2125" y="220" as="targetPoint" />
          </mxGeometry>
        </mxCell>
        <mxCell id="37OuJCox3zHIhqwTDh0u-63" value="&lt;font face=&quot;Times New Roman&quot; style=&quot;font-size: 30px;&quot;&gt;&lt;b&gt;Sentence2&lt;br&gt;&lt;/b&gt;&lt;/font&gt;" style="text;html=1;align=center;verticalAlign=middle;resizable=0;points=[];autosize=1;strokeColor=none;fillColor=none;" vertex="1" parent="1">
          <mxGeometry x="1905.5" y="667" width="150" height="50" as="geometry" />
        </mxCell>
        <mxCell id="37OuJCox3zHIhqwTDh0u-64" value="" style="shape=flexArrow;endArrow=classic;html=1;rounded=0;endWidth=32.72727272727273;endSize=12.047619047619047;width=19.047619047619047;" edge="1" parent="1">
          <mxGeometry width="50" height="50" relative="1" as="geometry">
            <mxPoint x="1982.23" y="656" as="sourcePoint" />
            <mxPoint x="1982.23" y="580" as="targetPoint" />
          </mxGeometry>
        </mxCell>
        <mxCell id="37OuJCox3zHIhqwTDh0u-66" value="&lt;font style=&quot;font-size: 30px;&quot; face=&quot;Times New Roman&quot;&gt;Word Embedding&lt;/font&gt;" style="rounded=1;whiteSpace=wrap;html=1;fillColor=#e1d5e7;strokeColor=#000000;container=0;" vertex="1" parent="1">
          <mxGeometry x="1758" y="413" width="473" height="69.95" as="geometry" />
        </mxCell>
        <mxCell id="37OuJCox3zHIhqwTDh0u-67" value="" style="endArrow=classic;html=1;rounded=0;" edge="1" parent="1">
          <mxGeometry width="50" height="50" relative="1" as="geometry">
            <mxPoint x="1872.67" y="404.49000000000007" as="sourcePoint" />
            <mxPoint x="1872.67" y="370.00000000000006" as="targetPoint" />
          </mxGeometry>
        </mxCell>
        <mxCell id="37OuJCox3zHIhqwTDh0u-68" value="" style="endArrow=classic;html=1;rounded=0;" edge="1" parent="1">
          <mxGeometry width="50" height="50" relative="1" as="geometry">
            <mxPoint x="2080.67" y="404.49000000000007" as="sourcePoint" />
            <mxPoint x="2080.67" y="370.00000000000006" as="targetPoint" />
          </mxGeometry>
        </mxCell>
      </root>
    </mxGraphModel>
  </diagram>
</mxfile>
